<?xml version="1.0" encoding="UTF-8" standalone="no"?>
<svg
   viewBox="0 0 147.08395 120.88"
   role="img"
   aria-label="Öğün logo — dikey kilit"
   version="1.1"
   id="svg5"
   width="147.08395"
   height="120.88"
   xmlns="http://www.w3.org/2000/svg"
   xmlns:svg="http://www.w3.org/2000/svg">
  <defs
     id="defs5" />
  <title
     id="title1">Öğün logo — dikey kilit</title>
  <circle
     cx="73.541977"
     cy="42"
     r="24"
     fill="none"
     stroke="#1B7A5A"
     stroke-opacity="0.22"
     stroke-width="8.5"
     style="color:#0b0b0b;font-weight:400;font-size:16px;font-family:anthropic-sans, '-apple-system', BlinkMacSystemFont, 'Segoe UI', sans-serif;dominant-baseline:auto;text-anchor:start;opacity:1;fill:none;stroke:#1b7a5a;stroke-width:8.5px;stroke-linecap:butt;stroke-linejoin:miter"
     id="circle1" />
  <circle
     cx="-42"
     cy="73.541977"
     r="24"
     fill="none"
     stroke="#1B7A5A"
     stroke-width="8.5"
     stroke-linecap="round"
     stroke-dasharray="103 48"
     transform="rotate(-90)"
     style="color:#0b0b0b;font-weight:400;font-size:16px;font-family:anthropic-sans, '-apple-system', BlinkMacSystemFont, 'Segoe UI', sans-serif;dominant-baseline:auto;text-anchor:start;opacity:1;fill:none;stroke:#1b7a5a;stroke-width:8.5px;stroke-linecap:round;stroke-linejoin:miter;stroke-dasharray:103px, 48px"
     id="circle2" />
  <circle
     cx="62.541981"
     cy="5"
     r="5"
     fill="#1B7A5A"
     style="color:#0b0b0b;font-weight:400;font-size:16px;font-family:anthropic-sans, '-apple-system', BlinkMacSystemFont, 'Segoe UI', sans-serif;dominant-baseline:auto;text-anchor:start;opacity:1;fill:#1b7a5a;stroke:none;stroke-width:1px;stroke-linecap:butt;stroke-linejoin:miter"
     id="circle3" />
  <circle
     cx="84.541977"
     cy="5"
     r="5"
     fill="#4FA97F"
     style="color:#0b0b0b;font-weight:400;font-size:16px;font-family:anthropic-sans, '-apple-system', BlinkMacSystemFont, 'Segoe UI', sans-serif;dominant-baseline:auto;text-anchor:start;opacity:1;fill:#4fa97f;stroke:none;stroke-width:1px;stroke-linecap:butt;stroke-linejoin:miter"
     id="circle4" />
  <path
     d="m 51.25397,89.692 q 0,2.886 -0.962,5.044 -0.962,2.132 -2.886,3.328 -1.924,1.196 -4.784,1.196 -2.938,0 -4.862,-1.196 -1.924,-1.196 -2.86,-3.354 -0.936,-2.158 -0.936,-5.044 0,-2.86 0.936,-4.992 0.962,-2.132 2.886,-3.328 1.924,-1.196 4.862,-1.196 2.86,0 4.758,1.196 1.924,1.17 2.886,3.328 0.962,2.132 0.962,5.018 z m -14.326,0 q 0,3.328 1.378,5.252 1.378,1.924 4.316,1.924 2.964,0 4.316,-1.924 1.352,-1.924 1.352,-5.252 0,-3.328 -1.352,-5.226 -1.326,-1.898 -4.29,-1.898 -2.964,0 -4.342,1.898 -1.378,1.898 -1.378,5.226 z m 1.82,-12.974 q 0,-0.754 0.39,-1.066 0.416,-0.338 0.988,-0.338 0.572,0 0.988,0.338 0.416,0.312 0.416,1.066 0,0.702 -0.416,1.066 -0.416,0.338 -0.988,0.338 -0.572,0 -0.988,-0.338 -0.39,-0.364 -0.39,-1.066 z m 4.966,0 q 0,-0.754 0.39,-1.066 0.416,-0.338 0.988,-0.338 0.546,0 0.962,0.338 0.416,0.312 0.416,1.066 0,0.702 -0.416,1.066 -0.416,0.338 -0.962,0.338 -0.572,0 -0.988,-0.338 -0.39,-0.364 -0.39,-1.066 z m 20.51799,12.298 h 6.708 v 9.256 q -1.482,0.494 -3.042,0.728 -1.534,0.26 -3.51,0.26 -4.264,0 -6.552,-2.522 -2.262,-2.548 -2.262,-7.02 0,-2.912 1.118,-5.044 1.144,-2.158 3.302,-3.328 2.158,-1.17 5.226,-1.17 1.534,0 2.938,0.312 1.404,0.286 2.6,0.806 l -1.014,2.34 q -0.962,-0.416 -2.158,-0.728 -1.17,-0.312 -2.47,-0.312 -3.094,0 -4.862,1.924 -1.768,1.924 -1.768,5.226 0,2.106 0.65,3.718 0.65,1.586 2.054,2.496 1.404,0.91 3.666,0.91 1.118,0 1.872,-0.104 0.78,-0.13 1.43,-0.286 v -5.044 h -3.926 z m 4.706,-14.04 q -0.156,1.664 -1.3,2.704 -1.144,1.014 -3.094,1.014 -2.028,0 -3.094,-1.014 -1.066,-1.014 -1.17,-2.704 h 1.638 q 0.104,1.066 0.806,1.352 0.702,0.26 1.872,0.26 0.988,0 1.768,-0.286 0.78,-0.312 0.91,-1.326 z m 22.05199,17.472 q 0,1.924 -0.806,3.484 -0.806,1.534 -2.444,2.444 -1.612,0.884 -4.108,0.884 -3.536,0 -5.382,-1.872 -1.82,-1.898 -1.82,-4.992 v -11.96 h 2.808 v 11.83 q 0,4.602 4.524,4.602 2.34,0 3.38,-1.248 1.066,-1.248 1.066,-3.38 V 80.436 h 2.782 z m -11.154,-15.73 q 0,-0.754 0.39,-1.066 0.416,-0.338 0.988,-0.338 0.572,0 0.988,0.338 0.416,0.312 0.416,1.066 0,0.702 -0.416,1.066 -0.416,0.338 -0.988,0.338 -0.572,0 -0.988,-0.338 -0.39,-0.364 -0.39,-1.066 z m 4.966,0 q 0,-0.754 0.39,-1.066 0.416,-0.338 0.988,-0.338 0.546,0 0.962,0.338 0.416,0.312 0.416,1.066 0,0.702 -0.416,1.066 -0.416,0.338 -0.962,0.338 -0.572,0 -0.988,-0.338 -0.39,-0.364 -0.39,-1.066 z M 112.20997,99 h -3.406 l -9.386,-15.002 h -0.104 q 0.052,1.04 0.13,2.392 0.078,1.326 0.078,2.73 V 99 h -2.548 V 80.436 h 3.38 l 9.36,14.924 h 0.078 q -0.026,-0.546 -0.078,-1.378 -0.026,-0.832 -0.052,-1.768 -0.026,-0.962 -0.052,-1.794 v -9.984 h 2.6 z"
     id="text4"
     style="color:#0b0b0b;font-weight:500;font-size:26px;font-family:anthropic-sans, sans-serif;letter-spacing:1.2px;text-anchor:middle;fill:#1b7a5a;stroke-width:1px"
     aria-label="ÖĞÜN" />
  <path
     d="m 1.044,113.644 q 0,0.192 -0.024,0.504 -0.012,0.312 -0.024,0.54 h 0.048 q 0.072,-0.096 0.216,-0.276 0.144,-0.18 0.288,-0.36 0.156,-0.192 0.264,-0.312 l 2.052,-2.172 H 5.1 L 2.496,114.316 5.28,118 H 4.008 l -2.232,-3 -0.732,0.636 V 118 H 0 v -9.12 H 1.044 Z M 7.46401,118 h -1.056 v -9.12 h 1.056 z m 2.57999,-8.844 q 0.24,0 0.42,0.168 0.192,0.156 0.192,0.504 0,0.336 -0.192,0.504 -0.18,0.168 -0.42,0.168 -0.264,0 -0.444,-0.168 -0.18,-0.168 -0.18,-0.504 0,-0.348 0.18,-0.504 0.18,-0.168 0.444,-0.168 z m 0.516,2.412 V 118 H 9.504 v -6.432 z m 5.13599,-0.12 q 1.152,0 1.74,0.564 0.588,0.552 0.588,1.8 V 118 h -1.044 v -4.116 q 0,-1.548 -1.44,-1.548 -1.068,0 -1.476,0.6 -0.408,0.6 -0.408,1.728 V 118 h -1.056 v -6.432 h 0.852 l 0.156,0.876 h 0.06 q 0.312,-0.504 0.864,-0.744 0.552,-0.252 1.164,-0.252 z m 4.86,-2.292 q 0.24,0 0.42,0.168 0.192,0.156 0.192,0.504 0,0.336 -0.192,0.504 -0.18,0.168 -0.42,0.168 -0.264,0 -0.444,-0.168 -0.18,-0.168 -0.18,-0.504 0,-0.348 0.18,-0.504 0.18,-0.168 0.444,-0.168 z m 0.516,2.412 V 118 h -1.056 v -6.432 z m 3.084,2.076 q 0,0.192 -0.024,0.504 -0.012,0.312 -0.024,0.54 h 0.048 q 0.072,-0.096 0.216,-0.276 0.144,-0.18 0.288,-0.36 0.156,-0.192 0.264,-0.312 l 2.052,-2.172 h 1.236 l -2.604,2.748 2.784,3.684 h -1.272 l -2.232,-3 -0.732,0.636 V 118 h -1.044 v -9.12 h 1.044 z m 10.764,4.476 q -1.2,0 -1.92,-0.828 -0.72,-0.84 -0.72,-2.496 0,-1.656 0.72,-2.496 0.732,-0.852 1.932,-0.852 0.744,0 1.212,0.276 0.48,0.276 0.78,0.672 h 0.072 q -0.012,-0.156 -0.048,-0.456 -0.024,-0.312 -0.024,-0.492 v -2.568 h 1.056 V 118 h -0.852 l -0.156,-0.864 h -0.048 q -0.288,0.408 -0.768,0.696 -0.48,0.288 -1.236,0.288 z m 0.168,-0.876 q 1.02,0 1.428,-0.552 0.42,-0.564 0.42,-1.692 v -0.192 q 0,-1.2 -0.396,-1.836 -0.396,-0.648 -1.464,-0.648 -0.852,0 -1.284,0.684 -0.42,0.672 -0.42,1.812 0,1.152 0.42,1.788 0.432,0.636 1.296,0.636 z m 5.472,-8.088 q 0.24,0 0.42,0.168 0.192,0.156 0.192,0.504 0,0.336 -0.192,0.504 -0.18,0.168 -0.42,0.168 -0.264,0 -0.444,-0.168 -0.18,-0.168 -0.18,-0.504 0,-0.348 0.18,-0.504 0.18,-0.168 0.444,-0.168 z m 0.516,2.412 V 118 h -1.056 v -6.432 z m 1.03199,0 h 1.128 l 1.392,3.66 q 0.18,0.48 0.324,0.924 0.144,0.432 0.216,0.828 h 0.048 q 0.072,-0.3 0.228,-0.78 0.156,-0.492 0.324,-0.984 l 1.308,-3.648 h 1.14 l -2.772,7.32 q -0.336,0.912 -0.876,1.452 -0.528,0.54 -1.464,0.54 -0.288,0 -0.504,-0.036 -0.216,-0.024 -0.372,-0.06 v -0.84 q 0.132,0.024 0.312,0.048 0.192,0.024 0.396,0.024 0.552,0 0.888,-0.312 0.348,-0.312 0.54,-0.828 l 0.336,-0.852 z m 9.61201,-0.12 q 0.828,0 1.416,0.36 0.6,0.36 0.912,1.02 0.324,0.648 0.324,1.524 v 0.636 h -4.404 q 0.024,1.092 0.552,1.668 0.54,0.564 1.5,0.564 0.612,0 1.08,-0.108 0.48,-0.12 0.984,-0.336 v 0.924 q -0.492,0.216 -0.972,0.312 -0.48,0.108 -1.14,0.108 -0.912,0 -1.62,-0.372 -0.696,-0.372 -1.092,-1.104 -0.384,-0.744 -0.384,-1.812 0,-1.056 0.348,-1.812 0.36,-0.756 0.996,-1.164 0.648,-0.408 1.5,-0.408 z m -0.012,0.864 q -0.756,0 -1.2,0.492 -0.432,0.48 -0.516,1.344 h 3.276 q -0.012,-0.816 -0.384,-1.32 -0.372,-0.516 -1.176,-0.516 z m 6.44399,4.944 q 0.24,0 0.492,-0.036 0.252,-0.048 0.408,-0.096 v 0.804 q -0.168,0.084 -0.48,0.132 -0.312,0.06 -0.6,0.06 -0.504,0 -0.936,-0.168 -0.42,-0.18 -0.684,-0.612 -0.264,-0.432 -0.264,-1.212 v -3.744 h -0.912 v -0.504 l 0.924,-0.42 0.42,-1.368 h 0.624 v 1.476 h 1.86 v 0.816 h -1.86 v 3.72 q 0,0.588 0.276,0.876 0.288,0.276 0.732,0.276 z m 2.724,-8.1 q 0.24,0 0.42,0.168 0.192,0.156 0.192,0.504 0,0.336 -0.192,0.504 -0.18,0.168 -0.42,0.168 -0.264,0 -0.444,-0.168 -0.18,-0.168 -0.18,-0.504 0,-0.348 0.18,-0.504 0.18,-0.168 0.444,-0.168 z m 0.516,2.412 V 118 h -1.056 v -6.432 z m 6.22799,4.656 q 0,0.936 -0.696,1.416 -0.696,0.48 -1.872,0.48 -0.672,0 -1.164,-0.108 -0.48,-0.108 -0.852,-0.3 v -0.96 q 0.384,0.192 0.924,0.36 0.552,0.156 1.116,0.156 0.804,0 1.164,-0.252 0.36,-0.264 0.36,-0.696 0,-0.24 -0.132,-0.432 -0.132,-0.192 -0.48,-0.384 -0.336,-0.192 -0.972,-0.432 -0.624,-0.24 -1.068,-0.48 -0.444,-0.24 -0.684,-0.576 -0.24,-0.336 -0.24,-0.864 0,-0.816 0.66,-1.26 0.672,-0.444 1.752,-0.444 0.588,0 1.092,0.12 0.516,0.108 0.96,0.312 l -0.36,0.84 q -0.408,-0.168 -0.852,-0.288 -0.444,-0.12 -0.912,-0.12 -0.648,0 -0.996,0.216 -0.336,0.204 -0.336,0.564 0,0.264 0.156,0.456 0.156,0.18 0.516,0.36 0.372,0.168 0.984,0.408 0.612,0.228 1.044,0.468 0.432,0.24 0.66,0.588 0.228,0.336 0.228,0.852 z m 0.552,-4.656 h 1.128 l 1.392,3.66 q 0.18,0.48 0.324,0.924 0.144,0.432 0.216,0.828 h 0.048 q 0.072,-0.3 0.228,-0.78 0.156,-0.492 0.324,-0.984 l 1.308,-3.648 h 1.14 l -2.772,7.32 q -0.336,0.912 -0.876,1.452 -0.528,0.54 -1.464,0.54 -0.288,0 -0.504,-0.036 -0.216,-0.024 -0.372,-0.06 v -0.84 q 0.132,0.024 0.312,0.048 0.192,0.024 0.396,0.024 0.552,0 0.888,-0.312 0.348,-0.312 0.54,-0.828 l 0.336,-0.852 z m 9.61201,-0.12 q 0.828,0 1.416,0.36 0.6,0.36 0.912,1.02 0.324,0.648 0.324,1.524 v 0.636 h -4.404 q 0.024,1.092 0.552,1.668 0.54,0.564 1.5,0.564 0.612,0 1.08,-0.108 0.48,-0.12 0.984,-0.336 v 0.924 q -0.492,0.216 -0.972,0.312 -0.48,0.108 -1.14,0.108 -0.912,0 -1.62,-0.372 -0.696,-0.372 -1.092,-1.104 -0.384,-0.744 -0.384,-1.812 0,-1.056 0.348,-1.812 0.36,-0.756 0.996,-1.164 0.648,-0.408 1.5,-0.408 z m -0.012,0.864 q -0.756,0 -1.2,0.492 -0.432,0.48 -0.516,1.344 h 3.276 q -0.012,-0.816 -0.384,-1.32 -0.372,-0.516 -1.176,-0.516 z m 7.39199,-0.864 q 1.152,0 1.74,0.564 0.588,0.552 0.588,1.8 V 118 h -1.044 v -4.116 q 0,-1.548 -1.44,-1.548 -1.068,0 -1.476,0.6 -0.408,0.6 -0.408,1.728 V 118 h -1.056 v -6.432 h 0.852 l 0.156,0.876 h 0.06 q 0.312,-0.504 0.864,-0.744 0.552,-0.252 1.164,-0.252 z m 10.5,0 q 1.188,0 1.908,0.828 0.732,0.828 0.732,2.496 0,1.644 -0.732,2.496 -0.72,0.852 -1.92,0.852 -0.744,0 -1.236,-0.276 -0.48,-0.288 -0.756,-0.66 h -0.072 q 0.024,0.204 0.048,0.516 0.024,0.312 0.024,0.54 v 2.64 h -1.056 v -9.312 h 0.864 l 0.144,0.876 h 0.048 q 0.288,-0.42 0.756,-0.708 0.468,-0.288 1.248,-0.288 z m -0.192,0.888 q -0.984,0 -1.392,0.552 -0.396,0.552 -0.42,1.68 v 0.204 q 0,1.188 0.384,1.836 0.396,0.636 1.452,0.636 0.588,0 0.96,-0.324 0.384,-0.324 0.564,-0.876 0.192,-0.564 0.192,-1.284 0,-1.104 -0.432,-1.764 -0.42,-0.66 -1.308,-0.66 z m 5.568,5.664 h -1.056 v -9.12 h 1.056 z m 4.47599,-6.54 q 1.176,0 1.74,0.516 0.564,0.516 0.564,1.644 V 118 h -0.768 l -0.204,-0.912 h -0.048 q -0.42,0.528 -0.888,0.78 -0.456,0.252 -1.272,0.252 -0.876,0 -1.452,-0.456 -0.576,-0.468 -0.576,-1.452 0,-0.96 0.756,-1.476 0.756,-0.528 2.328,-0.576 l 1.092,-0.036 v -0.384 q 0,-0.804 -0.348,-1.116 -0.348,-0.312 -0.984,-0.312 -0.504,0 -0.96,0.156 -0.456,0.144 -0.852,0.336 l -0.324,-0.792 q 0.42,-0.228 0.996,-0.384 0.576,-0.168 1.2,-0.168 z m 0.312,3.432 q -1.2,0.048 -1.668,0.384 -0.456,0.336 -0.456,0.948 0,0.54 0.324,0.792 0.336,0.252 0.852,0.252 0.816,0 1.356,-0.444 0.54,-0.456 0.54,-1.392 v -0.576 z m 6.13201,2.364 q 0.24,0 0.492,-0.036 0.252,-0.048 0.408,-0.096 v 0.804 q -0.168,0.084 -0.48,0.132 -0.312,0.06 -0.6,0.06 -0.504,0 -0.936,-0.168 -0.42,-0.18 -0.684,-0.612 -0.264,-0.432 -0.264,-1.212 v -3.744 h -0.912 v -0.504 l 0.924,-0.42 0.42,-1.368 h 0.624 v 1.476 h 1.86 v 0.816 h -1.86 v 3.72 q 0,0.588 0.276,0.876 0.288,0.276 0.732,0.276 z m 5.148,-4.872 h -1.62 V 118 h -1.056 v -5.616 h -1.128 v -0.492 l 1.128,-0.36 v -0.372 q 0,-1.248 0.552,-1.788 0.552,-0.552 1.536,-0.552 0.384,0 0.696,0.072 0.324,0.06 0.552,0.144 l -0.276,0.828 q -0.192,-0.06 -0.444,-0.12 -0.252,-0.06 -0.516,-0.06 -0.528,0 -0.792,0.36 -0.252,0.348 -0.252,1.104 v 0.42 h 1.62 z m 6.756,2.388 q 0,1.596 -0.816,2.472 -0.804,0.876 -2.184,0.876 -0.852,0 -1.524,-0.384 -0.66,-0.396 -1.044,-1.14 -0.384,-0.756 -0.384,-1.824 0,-1.596 0.804,-2.46 0.804,-0.864 2.184,-0.864 0.876,0 1.536,0.396 0.672,0.384 1.044,1.128 0.384,0.732 0.384,1.8 z m -4.86,0 q 0,1.14 0.444,1.812 0.456,0.66 1.44,0.66 0.972,0 1.428,-0.66 0.456,-0.672 0.456,-1.812 0,-1.14 -0.456,-1.788 -0.456,-0.648 -1.44,-0.648 -0.984,0 -1.428,0.648 -0.444,0.648 -0.444,1.788 z m 9.52799,-3.324 q 0.18,0 0.384,0.024 0.216,0.012 0.372,0.048 l -0.132,0.972 q -0.156,-0.036 -0.348,-0.06 -0.18,-0.024 -0.348,-0.024 -0.492,0 -0.924,0.276 -0.432,0.264 -0.696,0.756 -0.252,0.48 -0.252,1.128 V 118 h -1.056 v -6.432 h 0.864 l 0.12,1.176 h 0.048 q 0.312,-0.528 0.804,-0.912 0.492,-0.384 1.164,-0.384 z m 9.012,0 q 1.092,0 1.632,0.564 0.54,0.552 0.54,1.8 V 118 h -1.044 v -4.14 q 0,-1.524 -1.308,-1.524 -0.936,0 -1.344,0.54 -0.396,0.54 -0.396,1.572 V 118 h -1.044 v -4.14 q 0,-1.524 -1.32,-1.524 -0.972,0 -1.344,0.6 -0.372,0.6 -0.372,1.728 V 118 h -1.056 v -6.432 h 0.852 l 0.156,0.876 h 0.06 q 0.3,-0.504 0.804,-0.744 0.516,-0.252 1.092,-0.252 1.512,0 1.968,1.08 h 0.06 q 0.324,-0.552 0.876,-0.816 0.564,-0.264 1.188,-0.264 z m 9.53999,0.12 V 118 h -0.864 l -0.156,-0.852 h -0.048 q -0.312,0.504 -0.864,0.744 -0.552,0.228 -1.176,0.228 -1.164,0 -1.752,-0.552 -0.588,-0.564 -0.588,-1.788 v -4.212 h 1.068 v 4.14 q 0,1.536 1.428,1.536 1.068,0 1.476,-0.6 0.42,-0.6 0.42,-1.728 v -3.348 z"
     id="text5"
     style="color:#0b0b0b;font-size:12px;font-family:anthropic-sans, '-apple-system', BlinkMacSystemFont, 'Segoe UI', sans-serif;text-anchor:middle;fill:#52514e;stroke-width:1px"
     aria-label="klinik diyetisyen platformu" />
</svg>
